<svg width="178" height="40" viewBox="0 0 178 40" fill="none" xmlns="http://www.w3.org/2000/svg">
<circle cx="173.5" cy="26.5" r="4.5" fill="#BAD1DB"/>
<path d="M10.5469 30.4746C11.584 30.4746 12.5859 30.334 13.5527 30.0352C14.5195 29.7363 15.416 29.2969 16.2422 28.7168C17.0684 28.1367 17.7363 27.3281 18.2461 26.291C18.7559 25.2539 19.002 24.0586 19.002 22.7051C19.002 22.0547 18.9316 21.4395 18.791 20.8594C18.6504 20.2793 18.4922 19.7871 18.334 19.3652C18.1758 18.9434 17.877 18.5039 17.4375 18.0293C16.998 17.5547 16.6465 17.2031 16.4004 16.957C16.1543 16.7109 15.6797 16.3594 14.9941 15.9023C14.3086 15.4453 13.8164 15.1289 13.5352 14.9531C13.2539 14.7773 12.6562 14.4434 11.7598 13.9336C9.63281 12.7031 8.19141 11.7363 7.45312 11.0332C6.71484 10.3301 6.3457 9.45117 6.3457 8.37891C6.3457 7.25391 6.67969 6.39258 7.34766 5.77734C8.01562 5.16211 8.80664 4.86328 9.7207 4.86328C11.1445 4.86328 12.5332 5.61914 13.9043 7.11328C15.2754 8.60742 16.4531 10.4004 17.4551 12.4922H17.7188L16.998 5.14453C14.3789 4.24805 12.0586 3.80859 10.0371 3.80859C7.7168 3.80859 5.7832 4.44141 4.25391 5.72461C2.72461 7.00781 1.95117 8.74805 1.95117 10.9453C1.95117 13.0371 2.75977 14.8301 4.35938 16.3242C5.11523 17.0098 6.57422 18.0117 8.75391 19.3125C10.8809 20.5781 12.3574 21.5977 13.166 22.3711C13.9746 23.1445 14.3789 24.1816 14.3789 25.4648C14.3789 26.6777 14.0098 27.627 13.2891 28.3125C12.5684 28.998 11.6719 29.3496 10.6172 29.3496C9.42188 29.3496 8.22656 28.875 7.03125 27.9434C5.83594 27.0117 4.83398 25.9395 4.02539 24.7441C3.2168 23.5488 2.49609 22.248 1.8457 20.8242H1.59961L2.07422 28.3828C5.18555 29.8066 7.99805 30.5098 10.5117 30.5098L10.5469 30.4746ZM43.3125 12.6152V12.8613C44.0684 13.4414 44.5957 13.916 44.8945 14.3027C45.1934 14.6895 45.334 15.1113 45.334 15.5684C45.334 15.9199 45.2461 16.3066 45.0879 16.7461C44.3848 18.5215 43.3477 21.0879 41.9766 24.4277C40.6934 21.5098 39.4805 18.7148 38.3555 16.0254C38.1621 15.5859 38.0566 15.1992 38.0566 14.8828C38.0566 14.1094 38.6895 13.4414 39.9727 12.8613V12.6152H30.1113V12.8613C31.2891 13.5293 32.0801 14.3555 32.4844 15.3398L33.6621 18.1172L31.043 24.3926C29.0742 19.9102 27.8613 17.1152 27.4043 16.0078C27.2109 15.5156 27.123 15.1289 27.123 14.8301C27.123 14.1094 27.7383 13.4414 28.9863 12.8438V12.5977H19.1602V12.8438C20.2852 13.5645 21.0586 14.4082 21.498 15.375L27.9141 30.0176H29.6016L34.207 19.3652L38.8477 30.0176H40.5879L46.2656 16.7637C46.6348 15.9375 47.0215 15.252 47.4434 14.707C47.8652 14.1621 48.498 13.5469 49.3594 12.8613V12.6152H43.3125ZM54.0352 10.0137C54.8262 10.0137 55.4941 9.75 56.0566 9.22266C56.6191 8.69531 56.9004 8.04492 56.9004 7.27148C56.9004 6.55078 56.6191 5.91797 56.0566 5.37305C55.4941 4.82812 54.8086 4.56445 54.0176 4.56445C53.2266 4.56445 52.541 4.8457 51.9609 5.39062C51.3809 5.93555 51.082 6.56836 51.082 7.28906C51.082 8.02734 51.3633 8.67773 51.9434 9.22266C52.5234 9.76758 53.209 10.0488 54 10.0488L54.0352 10.0137ZM49.5176 30.0352H59.2734V29.7891C58.377 29.3145 57.7969 28.8574 57.5508 28.418C57.3047 27.9785 57.1816 27.1172 57.1816 25.8164V12.1055C54.6504 12.8613 52.1016 13.3359 49.5352 13.5293V13.7754C50.1855 14.1797 50.625 14.4961 50.8359 14.707C51.0469 14.918 51.2402 15.3223 51.3984 15.9199C51.5566 16.5176 51.6445 17.3965 51.6445 18.5391V25.834C51.6445 27.1348 51.5215 27.9961 51.2754 28.4355C51.0293 28.875 50.4492 29.332 49.5352 29.8066L49.5176 30.0352ZM89.6484 25.7812V17.4668C89.6484 16.4648 89.4727 15.5859 89.1211 14.8477C88.7695 14.1094 88.3125 13.5645 87.7676 13.2129C87.2227 12.8613 86.6602 12.5977 86.0977 12.4219C85.5352 12.2461 84.9727 12.1582 84.4277 12.1582C82.002 12.1582 79.9805 13.4414 78.3809 16.0078C78.0996 14.6543 77.4492 13.6699 76.4473 13.0723C75.4453 12.4746 74.4082 12.1758 73.3359 12.1758C70.9102 12.1758 68.9062 13.459 67.3242 16.0254V12.1055C64.7578 12.8789 62.2441 13.3359 59.8008 13.4766V13.7227C60.7148 14.2676 61.2949 14.8125 61.541 15.3398C61.7871 15.8672 61.9102 16.9219 61.9102 18.5039V25.834C61.9102 27.1348 61.7871 27.9961 61.541 28.4355C61.2949 28.875 60.7148 29.332 59.8008 29.8066V30.0527H69.5215V29.8066C68.6426 29.332 68.0801 28.875 67.834 28.4355C67.5879 27.9961 67.4648 27.1348 67.4648 25.834V17.2734C68.3438 15.7793 69.4336 15.041 70.7344 15.041C71.6484 15.041 72.2812 15.4102 72.6328 16.1484C72.9844 16.8867 73.1602 18.3457 73.1602 20.5254C73.1602 23.3906 73.1426 25.1484 73.125 25.8164C73.1074 27.1172 72.9668 27.9785 72.7031 28.418C72.4395 28.8574 71.8418 29.3145 70.9277 29.7891V30.0352H80.6836V29.7891C79.7695 29.3145 79.1895 28.8574 78.9434 28.418C78.6973 27.9785 78.5742 27.1172 78.5742 25.8164V17.2207C79.4707 15.7617 80.4902 15.0234 81.6328 15.0234C82.3535 15.0234 82.9688 15.3047 83.4785 15.8672C83.9883 16.4297 84.252 17.2559 84.252 18.3633C84.252 22.3711 84.2344 24.8496 84.2168 25.8164C84.1641 27.0645 84.0234 27.9082 83.7949 28.3477C83.5664 28.7871 82.9688 29.2617 82.002 29.7715V30.0176H91.7578V29.7715C90.8438 29.2969 90.2637 28.8398 90.0176 28.4004C89.7715 27.9609 89.6484 27.0996 89.6484 25.7988V25.7812ZM102.551 30.4746C103.588 30.4746 104.59 30.334 105.557 30.0352C106.523 29.7363 107.42 29.2969 108.246 28.7168C109.072 28.1367 109.74 27.3281 110.25 26.291C110.76 25.2539 111.006 24.0586 111.006 22.7051C111.006 22.0547 110.936 21.4395 110.795 20.8594C110.654 20.2793 110.496 19.7871 110.338 19.3652C110.18 18.9434 109.881 18.5039 109.441 18.0293C109.002 17.5547 108.65 17.2031 108.404 16.957C108.158 16.7109 107.684 16.3594 106.998 15.9023C106.312 15.4453 105.82 15.1289 105.539 14.9531C105.258 14.7773 104.66 14.4434 103.764 13.9336C101.637 12.7031 100.195 11.7363 99.457 11.0332C98.7188 10.3301 98.3496 9.45117 98.3496 8.37891C98.3496 7.25391 98.6836 6.39258 99.3516 5.77734C100.02 5.16211 100.811 4.86328 101.725 4.86328C103.148 4.86328 104.537 5.61914 105.908 7.11328C107.279 8.60742 108.457 10.4004 109.459 12.4922H109.723L109.002 5.14453C106.383 4.24805 104.062 3.80859 102.041 3.80859C99.7207 3.80859 97.7871 4.44141 96.2578 5.72461C94.7285 7.00781 93.9551 8.74805 93.9551 10.9453C93.9551 13.0371 94.7637 14.8301 96.3633 16.3242C97.1191 17.0098 98.5781 18.0117 100.758 19.3125C102.885 20.5781 104.361 21.5977 105.17 22.3711C105.979 23.1445 106.383 24.1816 106.383 25.4648C106.383 26.6777 106.014 27.627 105.293 28.3125C104.572 28.998 103.676 29.3496 102.621 29.3496C101.426 29.3496 100.23 28.875 99.0352 27.9434C97.8398 27.0117 96.8379 25.9395 96.0293 24.7441C95.2207 23.5488 94.5 22.248 93.8496 20.8242H93.6035L94.0781 28.3828C97.1895 29.8066 100.002 30.5098 102.516 30.5098L102.551 30.4746ZM125.104 12.1406C122.994 12.1406 121.184 13.1777 119.672 15.2695L119.602 15.2344L119.637 12.0703C117.229 12.791 114.715 13.248 112.096 13.4414V13.6523C112.957 13.9863 113.52 14.3203 113.801 14.6367C114.082 14.9531 114.223 15.4453 114.223 16.0957V32.9883C114.223 34.2891 114.1 35.1504 113.854 35.5723C113.607 35.9941 113.027 36.4512 112.113 36.9258V37.1895H122.695V36.9258C121.447 36.4512 120.639 35.9941 120.27 35.5723C119.9 35.1504 119.725 34.2891 119.725 32.9883V28.5586H119.795C121.236 29.7539 122.854 30.3516 124.629 30.3516C126.615 30.3516 128.373 29.5254 129.885 27.873C131.396 26.2207 132.152 23.9004 132.152 20.8945C132.152 18.082 131.467 15.9199 130.078 14.4082C128.689 12.8965 127.02 12.1406 125.068 12.1406H125.104ZM123.627 29.1387C122.695 29.1387 121.887 28.6113 121.219 27.5742C120.551 26.5371 120.041 25.2891 119.707 23.8477V16.3594C120.744 14.9707 121.781 14.2676 122.836 14.2676C124.049 14.2676 124.945 15.0234 125.525 16.5352C126.105 18.0469 126.404 20.0332 126.404 22.4766C126.404 26.9238 125.473 29.1387 123.627 29.1387ZM143.209 30.3516C146.021 30.3516 148.271 29.5078 149.959 27.8379C151.646 26.168 152.49 23.918 152.49 21.1055C152.49 18.3457 151.664 16.166 150.012 14.5488C148.359 12.9316 146.145 12.123 143.35 12.123C140.484 12.123 138.199 12.9844 136.512 14.6895C134.824 16.3945 133.98 18.6621 133.98 21.4746C133.98 24.2344 134.807 26.3965 136.477 27.9785C138.146 29.5605 140.396 30.3516 143.227 30.3516H143.209ZM144.053 29.4199C143.262 29.4199 142.559 28.998 141.943 28.1543C141.328 27.3105 140.854 26.2559 140.52 25.0078C140.186 23.7598 139.939 22.5469 139.781 21.3516C139.623 20.1562 139.553 19.1016 139.553 18.1875C139.553 16.5176 139.834 15.252 140.379 14.3906C140.924 13.5293 141.592 13.1074 142.383 13.1074C143.174 13.1074 143.877 13.5293 144.492 14.3906C145.107 15.252 145.564 16.3066 145.881 17.5723C146.197 18.8379 146.426 20.0508 146.584 21.2109C146.742 22.3711 146.812 23.4258 146.812 24.3574C146.812 26.0625 146.549 27.3457 146.004 28.1895C145.459 29.0332 144.791 29.4551 144 29.4551L144.053 29.4199ZM160.225 30.3516C162.598 30.3516 164.496 29.1738 165.92 26.8008L165.744 26.6074C164.971 27.3984 164.162 27.8027 163.318 27.8027C162.633 27.8027 162.035 27.5566 161.543 27.0469C161.051 26.5371 160.822 25.6934 160.84 24.498L160.945 13.7227H165.129L165.305 12.6152H160.875V7.64062H160.488C159.486 9.25781 157.236 11.1035 153.756 13.1602V13.7227H155.443V25.3594C155.443 26.9941 155.9 28.2422 156.814 29.0859C157.729 29.9297 158.871 30.3516 160.242 30.3516H160.225Z" fill="#293033"/>
</svg>
